<?xml version="1.0" encoding="utf-8"?>
<!-- Generator: Adobe Illustrator 16.0.0, SVG Export Plug-In . SVG Version: 6.00 Build 0)  -->
<!DOCTYPE svg PUBLIC "-//W3C//DTD SVG 1.1//EN" "http://www.w3.org/Graphics/SVG/1.1/DTD/svg11.dtd">
<svg version="1.1" id="Layer_1" xmlns="http://www.w3.org/2000/svg" xmlns:xlink="http://www.w3.org/1999/xlink" x="0px" y="0px"
	 width="300px" height="400px" viewBox="44.421 57.202 300 400" enable-background="new 44.421 57.202 300 400"
	 xml:space="preserve">
<path fill="#C1E9BE" d="M186.296,147.288c-2.037,5.749-10.241,15.719-3.694,5.583C184.038,150.649,185.186,149.007,186.296,147.288z
	 M90.826,301.577c1.037-2.406,4.909-5.39,3.351-7.267C93.286,297.79,89.068,297.871,90.826,301.577z M98.882,289.395
	c1.557,1.383,2.669-3.802,2.515-4.901C100.448,286.147,98.592,287.991,98.882,289.395z M64.992,345.055
	c-0.576-1.904,4.323-4.852,1.161-5.069C67.365,341.086,61.636,345.854,64.992,345.055z M230.312,91.756
	c-0.806,1.921-3.768,4.285-3.18,5.925C227.938,95.761,230.905,93.393,230.312,91.756z M47.399,381.58
	C42.024,387.999,47.861,385.139,47.399,381.58L47.399,381.58z M43.465,411.812c3.08-6.51,10.556-10.606,10.238-16.58
	C50.755,400.374,43.909,408.64,43.465,411.812z M63.442,382.704c-2.313,3.319-6.907,7.674-8.393,12.689
	C57.208,392.077,63.171,386.447,63.442,382.704z M58.68,417.489c-0.815,1.926-3.775,4.287-3.188,5.92
	C56.3,421.491,59.262,419.13,58.68,417.489z M73.996,406.462c0.998,1.105-3.124,3.748-2.853,5.415
	C72.194,411.381,76.841,405.956,73.996,406.462z M91.797,381.757c-2.52-1.44-0.209,2.299-1.506,3.381
	c-4.42,6.926-12.928,14.725-14.605,20.982C79.823,399.997,90.874,388.71,91.797,381.757z M305.27,95.363
	c0.859-1.855,4.316-0.313,2.526-2.707c-2.423,1.888,0.074-1.069-0.339-1.688C305.947,91.325,304.39,94.171,305.27,95.363z
	 M310.159,93.488c0.667,0.449-0.124,1.195,0.347,1.688c2.304-1.296-0.632-4.898-1.868-2.693
	C309.232,93.158,309.091,93.657,310.159,93.488z M316.082,96.673c1.366-1.59,2.966-3.558,3.183-5.919
	c-0.98,0.864-1.502,0.548-1.857-0.497C315.896,92.394,316.112,93.93,316.082,96.673z M81.093,454.206
	c1.801-4.771,6.014-8.188,8.73-13.203c-0.805,1.753-2.257,2.045-2.532,0.519C86.25,444.962,79.276,450.289,81.093,454.206z
	 M81.612,456.737c1.876,1.212,4.609-4.526,4.535-5.754c-0.514,0.542-0.768-0.062-1.011-0.67
	C84.121,452.608,83.509,455.5,81.612,456.737z M114.465,439.062c-1.638-0.7-4.668,2.823-4.378,4.4
	C111.663,442.583,112.978,440.402,114.465,439.062z M138.537,423.611c0.56-2.63,2.85-2.895,2.01-5.237
	C140.077,420.075,136.354,422.446,138.537,423.611z M134.393,442.026c0.763-2.565,4.13-3.365,2.513-4.907
	C135.411,438.13,134.443,440.17,134.393,442.026z M272.919,246.89c4.11-2.538,15.71-19.807,15.607-24.7
	C284.477,230.061,277.712,237.045,272.919,246.89z M292.907,219.981c-0.75-1.754,2.463-2.155,3.021-4.571
	C294.401,213.558,290.236,221.305,292.907,219.981z M312.39,192.732c6.513-12.54,17.453-22.87,24.336-35.712
	c-5.013,4.522-8.193,12.744-12.597,15.747c0.208-0.92,2.327-2.233,1.172-2.872c-4.753,6.654-9.818,15.246-14.948,21.492
	C311.029,191.834,311.709,192.283,312.39,192.732z M221.92,104.445c-35.356,42.276-69.203,100.382-94.827,144.506
	c1.06-1.845-3.391,8.395-6.377,11.842c-1.627-0.705-4.66,2.82-4.369,4.406c0.47-0.585,0.946-1.108,1.688-0.352
	c-20.916,33.854-37.557,56.494-53.674,90.004c0.733,0.771,1.793,0.104,1.52,1.004c-1.696,5.177-6.369,10.96-7.706,16.068
	c3.773-3.873,5.768-10.523,10.908-15.403c-3.877,5.995-4.148,10.803-8.727,13.198c3.16-0.188,0.735,0.622,1.874,2.693
	c5.219-6.695,9.666-17.201,15.448-21.159c-0.882,3.5-2.239,4.525-3.69,7.778c1.633,1.312,1.312-2.51,3.715-1.191
	c-2.232,3.156-5.857,10.215-6.703,14.542c4.032-5.182,6.04-11.229,10.41-15.743c-2.86,4.679-5.081,10.078-6.533,13.194
	c0.372-0.32,0.671-0.994,1.174-0.683c-0.534,3.412-6.739,7.744-3.683,7.782c-3.239,5.657-5.32,7.494-6.367,11.841
	c-0.43-3.046-3.85,3.336-0.667,1.012c-2.853,5.205-7.023,13.711-7.541,16.904c-0.261-2.87,3.21-1.812,4.206-5.246
	c0.007-1.601-1.666-0.18-1.192-1.514c0.885-0.698,1.36-3.39,2.521-2.71c-0.314,0.651-1.037,1.382-0.5,1.857
	c1.566-2.368,3.134-4.739,4.697-7.104c0.018-1.606-1.66-0.18-1.18-1.517c4.042-6.928,6.723-9.374,10.256-9.992
	c-1.75,2.935-8.044,12.037-6.366,11.838c2.258-1.122,3.642-6.525,6.216-6.1c-5.156,8.613-13.645,15.888-16.455,22.682
	c3.283-2.818,5.182-5.851,6.72-7.963c-0.276,0.383-0.162,1.352-0.162,1.352c2.672-3.736,2.332-6.646,6.89-9.306
	c-1.563,2.367-3.135,4.738-4.698,7.105c3.087-0.097,2.855-2.963,2.027,1.341c6.714-10.125,13.349-20.693,20.998-26.236
	c-1.458,0.961-2.749,5.084-2.501,7.094c2.23-3.413,3.165-3.532,5.037-5.416c-0.076,8.004-8.176,15.93-8.854,23.319
	c2.03-2.947,3.908-6.672,6.386-7.441c-2.145,2.327-4.149,4.96-3.685,7.773c3.075-3.408,3.773-5.579,7.232-7.618
	c-2.896,2.141-1.822,5.078-3.18,8.107c-1.764-0.814,1.16-2.579,0.158-3.541c-3.672,4.126-3.809,6.826-8.401,10.494
	c1.121-0.75,1.051-3.328-0.01-2.191c0.999,0.54-4.74,5.057-2.515,4.9c0.773-0.555,1.146-3.015,2.189-2.202
	c-0.704,1.754-3.543,3.942-2.848,5.412c3.604,0.606,6.655-10.901,10.921-13.208c-0.734,2.67-5.06,8.167-6.88,11.504
	c0.914-0.709,3.894-2.231,3.886-0.349c-1.361-2.164-4.458,4.635-2.863,3.215c0.882-0.696,1.358-3.388,2.529-2.71
	c-0.482,0.978-2.196,2.208-0.333,2.703c1.657-0.483,2.654-4.219,4.376-4.409c-0.581,1.181-3.979,5.155-2.18,4.402
	c0.856-1.528,1.832-2.495,3.025-2.376c-1.145,1.015-2.289,4.204-0.656,3.212c-0.255-1.561,4.547-1.604,3.206,0.66
	c2.357-2.782,2.89-4.877,4.871-6.268c-0.356,3.674-6.354,8.016-7.722,11.678c1.211-0.498,2.049-2.891,3.366-2.879
	c-0.68,1.456-1.581,2.96-1.336,4.223c1.79-1.995,3.135-6.174,5.211-6.766c0.721,0.778-0.54,0.58-1.006,1.521
	c1.777,1.57,2.382-2.656,4.037-1.706c-0.292,1.088-2.581,2.574-1.505,3.381c1.067-3.112,2.161-0.634,2.867-1.026
	c-0.663-1.378,2.816-2.467-0.344-1.681c2.117-1.117,3.874-3.975,6.063-4.747c-0.256,2.513-2.589,3.825-2.008,5.236
	c1.463-2.062,0.404,0.122,1.015,0.672c1.564-1.677,2.635-5.771,4.705-4.913c-2.643,5.548-7.417,7.627-7.208,12.013
	c6.095-8.708,11.471-17.269,16.973-20.153c-0.822,1.607-5.852,5.139-2.852,5.415c1.549,0.27,3.159-3.751,4.028-6.092
	c0.514,2.703,1.252-1.071,2.533-0.519c-1.779,5.956-9.467,12.79-11.578,18.614c1.387-1.093,2.512-3.46,4.03-3.899
	c1.087,0.955-0.963,2.543-0.151,3.551c3.393-2.336,7.039-12.661,13.113-15.41c-1.838,4.058-7.31,8.523-8.57,11.844
	c0.375-0.315,0.675-0.993,1.183-0.673c-7.479,10.977-15.12,17.516-18.644,24.876c1.731-1.326,4.147-3.271,6.727-5.762
	c0.632,0.455,0.274,1.115,1.191,1.516c1.48-2.494,3.312-3.291,2.521-0.525c2.266-3.717,5.76-8.929,7.742-7.28
	c1.059-2.57,5.916-7.271,7.397-8.974c1.037,1.726,2.036,0.95,1.529,3.202c1.023-2.261,4.227-4.966,3.855-6.935
	c-2.477,1.186-2.252,3.714-4.546,3.557c2.37-2.723,4.729-5.559,7.407-6.776c-0.267,1.997-3.831,1.914-1.509,3.38
	c4.222-6.224,6.596-8.166,10.923-13.205c-2.164,3.595-6.73,10.585-6.866,13.699c0.47-0.549,0.859-1.501,1.511-1.188
	c-0.753,2.496-3.468,5.39-3.682,7.783c2.653-1.737,2.276-4.92,5.043-5.428c-0.482,7.039-10.521,12.54-11.576,18.61
	c1.439-2.248,2.977-4.053,4.706-4.906c-0.882,1.346-2.261,2.799-1.001,3.713c15.498-19.793,29.611-39.776,42.994-58.395
	c-0.272,0.64,0.047,1.163,0.351,1.693c2.974-10.199,17.357-27.454,22.162-31.313c0.152-0.91-1.904-1.369-1.361-2.359
	c17.851-27.922,34.423-51.812,52.901-72.275c-0.146,0.472-0.649,1.014-0.162,1.357c2.335-3.116,3.891-6.062,2.669-8.45
	c-0.587,0.705-1.054,1.994-1.854,1.692c15.096-27.556,36.626-52.015,51.199-78.504c6.156-11.209,15.232-23.935,20.298-34.007
	c5.812-11.575,6.508-19.96,11.364-30.424c0.473,0.717,5.095-2.996,6.563-4.412c-3.388-0.517-0.721-4.503-2.545-3.878
	c0.627,0.605-0.156,1.502,0.009,2.202c-1.361-0.21-2.492,0.701-3.706,1.189c0.896-1.212,1.717-2.401,0.657-3.207
	c-1.691,1.735-4.3-1.002-5.9,1.204c-0.18-0.885,2.553-4.569,0.999-3.718c-1,0.852-1.581,3.748-2.858,3.214
	c-0.681-1.741-1.258-1.795-2.544-3.874c1.23-1.86,2.459-3.718,3.689-5.579c0.831,0.475,1.717,1.227,2.191-0.013
	c-2.587-2.648-3.583,2.53-6.069,0.364c0.446-0.675,0.896-1.356,1.343-2.029c-2.228-0.367-1.95-1.834-3.721-1
	c2.238-2.765,6.992-12.856,2.335-7.943c-0.675-0.89,1.633-2.385,0.666-3.212c-2.584,2.443-5.179,7.078-3.675,9.975
	c-5.201-1.229-5.703-6.224-10.818-3.502c-0.826-0.859-0.559-1.94-1.868-2.701c-2.122,1.943-2.111,1-4.548,1.372
	c0.877-1.355,2.253-2.805,0.997-3.719c-2.283,3.019-0.237-0.208-0.678-1.18c-1.116,1.009-1.805,4.104-3.196,3.723
	c-1.646-4.21-4.175-7.434-4.435-10.951c-0.966,0.363-0.689-0.775-2.189,0.013c0.807-1.487-0.47-2.545-1.195-3.714
	c-1.083-0.271-1.553,2.438-2.694,1.862c1.083-2.428-2.167-2.491-2.548-3.866c0.794-1.768,2.571-1.287,1.167-2.874
	c-0.456,0.937-1.396,0.875-0.508-0.336c-1.459-2.136-1.625,2.072-2.859,1.023c-4.223-0.674-3.28-3.838-6.432-3.521
	c-1.024-8.534-15.174-5.705-17.934-12.592c1.935-2.768,6.222-5.301,6.889-7.119c-3.885,0.312-6.221,8.265-10.609,6.118
	c-0.774-1.307,0.756-3.083-0.016-4.384c-0.883,2.117-2.309,1.601-3.188,3.717c-6.192-0.193-9.529,13.603-15.478,14.577
	c1.279-2.313,4.094-4.934,3.015-6.765c-7.477,13.757-14.838,22.732-23.34,34.184C222.458,104.539,223.119,102.441,221.92,104.445z
	 M295.965,88.478c1.178-0.811,3.86,0.319,2.203,2.187C297.899,89.121,296.285,90.284,295.965,88.478z M114.607,433.319
	c2.935-3.598,5.833-7.278,8.738-11.001C120.695,426.649,119.026,431.858,114.607,433.319z M55.991,376.317
	c1.213-1.916,0.325-2.142,2.19-2.201c-0.294-0.238-0.547-0.474-0.176-0.843c-0.339-0.224-0.676-0.447-1.017-0.672
	C56.5,373.624,54.755,377.101,55.991,376.317z M69.969,412.554c-2.442,1.066-4.098,5.22-5.207,6.771
	C66.347,417.687,69.961,414.776,69.969,412.554z M79.597,414.548c-2.32,1.666,2.318-3.866-0.007-2.196
	c-0.493,1.415-3.071,3.262-2.18,4.396C77.945,416.174,80.532,415.24,79.597,414.548z M70.88,429.942
	c-1.893,4.422-6.53,6.699-7.048,10.658C65.567,435.885,71.835,433.941,70.88,429.942z M79.95,418.428
	c-2.797,3.941-7.397,7.863-7.722,11.678C74.3,425.002,80.206,421.243,79.95,418.428z M90.103,425.142
	c-1.42,1.735-5.128,3.455-4.871,6.267C86.105,429.198,89.7,427.429,90.103,425.142z M118.919,413.558
	c-1.701-1.069-4.965,1.322-4.539,3.564C115.78,415.364,117.258,414.022,118.919,413.558z M265.031,259.917
	c-0.068-2.026,7.47-5.566,4.356-8.791C268.771,254.331,264.762,257.057,265.031,259.917z M303.986,203.228
	c-1.351,1.736-0.682,3.069-1.67,4.738c-0.936-1.678-6.709,5.029-5.546,7.274C299.306,209.78,304.88,208.422,303.986,203.228z"/>
</svg>
