<?xml version="1.0" encoding="utf-8"?>
<!-- Generator: Adobe Illustrator 16.0.0, SVG Export Plug-In . SVG Version: 6.00 Build 0)  -->
<!DOCTYPE svg PUBLIC "-//W3C//DTD SVG 1.1//EN" "http://www.w3.org/Graphics/SVG/1.1/DTD/svg11.dtd">
<svg version="1.1" id="Layer_1" xmlns="http://www.w3.org/2000/svg" xmlns:xlink="http://www.w3.org/1999/xlink" x="0px" y="0px"
	 width="300px" height="400px" viewBox="0 0 300 400" enable-background="new 0 0 300 400" xml:space="preserve">
<g>
	<defs>
		<path id="SVGID_1_" d="M88.404,160.252c-0.504-3.555,5.58-7.309,0.968-1.483C89.722,159.921,89.12,159.707,88.404,160.252z
			 M164.299,45.142c-0.672,1.933-3.829,4.067-2.905,5.879C163.526,49.245,165.065,47.346,164.299,45.142z M42.849,237.221
			c1.889-1.548,4.243-5.969,4.845-8.855C45.26,231.107,43.228,233.662,42.849,237.221z M173.662,36.409
			c-0.675,1.51-4.121,2.279-2.91,4.467C171.104,38.464,174.901,38.694,173.662,36.409z M72.225,200.56
			c3.163-4.837,6.447-9.477,5.827-13.151C75.161,191.861,71.603,196.382,72.225,200.56z M56.721,222.95
			c-1.619,0.164-4.381,4.4-3.875,5.946C55.048,227.893,54.458,225.272,56.721,222.95z M171.05,53.075
			c2.265-2.326,1.681-4.945,3.877-5.951C172.009,45.769,170.339,51.661,171.05,53.075z M182.034,36.215
			c-2.255-1.638-4.577,3.854-4.202,5.032C180.952,39.135,180.344,38.186,182.034,36.215z M57.359,227.601
			c-1.229-0.513-0.275,0.726-0.967,1.488c-1.412,3.089-5.365,6.376-5.172,9.343c2.365-2.701,3.882-7.817,6.786-8.996
			c-0.7-1.539,3.874-5.921,1.938-5.801C59.083,224.958,58.221,226.28,57.359,227.601z M24.367,304.981
			c0.274-1.281,3.283-2.77,0.651-3.819C24.176,302.49,22.76,303.855,24.367,304.981z M213.939,23.809
			c0.196-1.986,1.969-2.66,1.623-5.305C214.241,20.007,211.816,21.565,213.939,23.809z M241.341,11.291
			c-2.505-1.483-5.802-0.093-4.191,2.211C239.831,13.392,239.629,12.443,241.341,11.291z M37.475,356.597
			c1.657-2.394,4.839-6.018,3.876-7.361C38.001,352.242,37.197,352.887,37.475,356.597z M42.29,364.679
			c0.285-1.274,2.915-2.742,1.619-3.89C42.135,360.917,41.752,363.343,42.29,364.679z M49.713,357.503
			c-1.113-1.322,1.118-2.907,0.005-4.231C47.61,353.623,47.175,357.815,49.713,357.503z M49.699,363.152
			c-1.014-0.545-2.256-1.723-2.897-1.182c0.695,0.566,0.189,1.238-0.33,1.905c2.09,0.775,1.22,1.787,2.896,2.59
			C50.846,365.257,48.225,364.361,49.699,363.152z M95.157,338.384c-2.008-1.86-4.164,3.113-3.55,4.043
			C93.789,341.079,92.862,339.403,95.157,338.384z M99.341,341.81c-1.041,1.142-2.994,2.576-2.267,4.883
			c1.076-1.655,2.153-3.304,3.229-4.957c-0.428-0.279-0.853-0.557-1.284-0.837c-0.654-0.422-1.379,0.335-0.645,0.993
			C98.604,341.611,98.849,341.364,99.341,341.81z M94.448,376.057c1.332-1.832,2.312-3.639,1.614-5.305
			C95.163,372.546,94.179,374.35,94.448,376.057z M113.474,360.907c-0.857,1.967-5.302,6.666-3.557,6.863
			C111.961,366.229,116.884,357.062,113.474,360.907z M121.226,349.007C115.765,355.74,119.172,356.469,121.226,349.007
			L121.226,349.007z M130.249,346.41c0.474-1.608,3.381-3.404,2.262-4.883C131.429,341.352,129.079,346.856,130.249,346.41z
			 M140.574,333.362c1.012-1.374,1.765-3.47,3.233-3.541C141.824,327.454,138.966,334.562,140.574,333.362z M184.476,280.042
			c0.682-1.937,3.835-4.06,2.907-5.878C185.452,276.513,184.006,277.135,184.476,280.042z M190.935,268.707
			c-0.567,1.775-3.6,3.743-2.58,5.383C188.933,272.317,191.961,270.359,190.935,268.707z M148.299,336.988
			c-1.627-0.854,0.525,1.746,0.314,2.316c4.743-5.922,7.051-12.752,12.6-17.921C154.259,324.843,153.161,333.114,148.299,336.988z
			 M170.9,306.511c1.147-1.464,1.943-3.917,3.556-4.043C171.689,301.084,170.033,304.652,170.9,306.511z M120.841,384.771
			c1.619-2.319,2.73-4.607,2.579-6.791C121.972,380.291,120.859,382.575,120.841,384.771z M177.36,295.176
			c1.394,1.016-1.644,0.708-1.614,2.478C177.756,300.177,180.079,293.703,177.36,295.176z M214.504,239.572
			c-4.618,9.476,3.83-0.795,2.908-4.46C216.42,236.826,215.044,238.455,214.504,239.572z M260.362,173.399
			c2.674-2.243,9.658-11.056,9.688-14.873C265.038,162.806,263.491,169.455,260.362,173.399z M130.196,377.446
			c1.244-1.825,1.959-3.604,1.607-5.3C130.554,373.965,129.85,375.749,130.196,377.446z M178.833,25.653
			c-1.975,0.102-5.608,2.804-5.481,4.198C174.647,27.835,179.052,27.297,178.833,25.653z M84.521,169.025
			c1.218-1.839,3.329-6.193,2.27-6.293C85.613,164.863,84.465,166.992,84.521,169.025z M64.167,205.9
			c1.77-2.454,2.541-6.491,6.132-6.591c0.854,1.966-3.953,4.386-1.304,6.211c3.927-3.243-0.604-13.462,4.535-12.582
			c-0.028-4.559,3.826-6.907,6.144-12.246c0.321-0.493,0.645-0.989,0.969-1.488c0.278-0.646,1.026-1.328,0.318-1.908
			c-8.085,9.222-16.027,22.769-19.06,29.259C62.698,205.13,63.457,203.922,64.167,205.9z M30.576,254.644
			c-1.017,1.483-4.814,3.153-2.582,5.384C27.98,257.121,30.723,257.259,30.576,254.644z M51.568,222.417
			c-1.267,2.017-2.308,3.667-1.93,4.385C52.306,226.994,52.381,224.42,51.568,222.417z M119.072,124.438
			c5.901-11.934,18.054-23.904,24.853-35.36c0.715-1.191,4.231-3.779,1.629-5.294c-0.41-0.231-0.81-0.421-0.968,0.074
			C135.954,98.188,126.61,107.878,119.072,124.438z M118.103,124.512c-4.294,7.815-8.062,13.914-11.314,20.173
			c3.838-6.133-5.115,4.478-0.329,3.323c-5.437,3.188-9.42,10.216-11.301,15.936c0.94-1.572,2.084-2.562,3.547-2.633
			c-6.457,11.384-15.696,20.897-21.319,32.726c4.236-1.979,5.38-8.363,10.329-11.631c-7.304,12.666-12.966,18.815-19.057,29.255
			c-9.358,16.049-19.358,32.229-29.067,47.445c0.309-0.548,1.116-1.07,0.96-0.077c-2.627,0.057-3.792,4.282-6.448,4.274
			c5.417-8.736,8.056-17.257,13.251-25.979c0.754-1.156,1.506-2.312,2.259-3.469c-1.457-0.858-1.642,1.926-2.579,2.559
			c-11.824,21.4-25.261,43.872-35.55,67.237c1.606-1.563,2.388-5.479,4.521-5.53c-0.28,0.65-1.032,1.331-0.327,1.905
			c1.035-2.444,6.634-5.232,5.494-9.838c-2.688,3.454-3.024,5.794-6.13,6.6c5.536-10.057,13.148-22.693,21.311-29.901
			c-4.046,5.056-10.737,14.047-13.251,23.146c2.412-0.538,1.046-3.639,3.552-2.63c-7.221,8.077-5.472,20.467-12.935,25.474
			c-4.076,2.736-2.571,12.015-8.075,15.22c0.835,4.886,0.369,9.864,2.23,13.458c0.282-4.099,5.049-8.55,2.595-12.434
			c2.063-5.64-1.841,2.844-1.615,2.479c0.211-5.776,6.073-9.298,8.079-13.806c-0.976-0.918-2.13-0.342-1.931-1.258
			c3.172-2.907,2.785-5.89,4.532-9.763c0.64,0.42,0.499,0.905,0.958,1.335c6.083-16.139,11.049-27.987,21.662-41.686
			c-0.294,1.276-2.924,2.736-1.622,3.893c2.419-1.066,7.137-9.223,3.555-8.28c4.432-3.76,6.545-9.905,12.596-13.69
			c-5.712,7.472-10.192,15.706-10.353,21.502c-0.397-0.687-1.621-2.693-2.252-0.75c0.46,1.028,1.464,1.631,1.929,2.663
			c-0.936,0.631-1.117,3.417-2.586,2.554c0.906-1.167,1.011-2.272,0.328-3.318c-3.893,3.309-6.273,5.674-6.786,10.416
			c2.622-1.843,1.237-6.535,4.524-5.533c-2.596,13.073-10.163,16.334-13.255,28.798c-0.393,0.286-0.921,0.218-1.613-0.349
			c-0.82,1.788-0.11,3.458,0.313,5.148c0.938-0.631,1.119-3.42,2.585-2.558c-1.024,1.333-1.665,3.764-3.548,2.632
			c0.066-0.781,0.045-1.573-0.322-2.329c-1.582,2.617-2.011,4.405-0.008,5.649c-5.518,6.817-2.592,12.841-6.472,18.38
			c2.195,0.476-3.718,8.111,0.946,8.385c-0.324-0.805-0.495-3.96,1.296-3.391c-1.515,1.364,0.809,1.665,1.605,1.753
			c-1.895,1.401,0.679,2.453-0.654,3.809c-3.155-0.932-0.988,2.92-4.833,1.8c-2.768-2.915,1.198-6.364-1.266-9.301
			c2.106,3.026-4.767,8.413-0.339,7.546c-1.858,4.366-3.854,6.802-4.851,10.261c0.883-0.68,0.55,0.659,0.966,1.333
			c1.893-0.449,3.681-6.528,5.154-3.704c-0.278-2.22,3.584-7.344,4.851-4.605c-3.582-0.357-2.862,4.683-3.554,5.451
			c1.641-1.116-0.326,1.819,1.278,2.246c0.474-1.964,2.567,0.703,3.22-0.729c-0.977-0.919-2.125-0.339-1.927-1.254
			c1.419-1.365,1.954-0.047,2.897-0.236c-1.958-2.305,2.169-2.367,0.007-4.225c-0.392,0.29-0.651,0.964-1.285,0.569
			c0.729-2.591-2.005-5.448,1.289-3.398c-2.306-4.691,3.457-7.146,0.348-11.779c2.041,0.163,3.275-1.986,4.517-4.117
			c-2.407-1.55-1.286-5.828,1.298-6.223c0.442,1.582-1.689,1.296-0.329,3.32c0.847-4.238,6.813-8.577,6.148-13.652
			c-0.586,1.163-1.56,1.237-2.902,0.23c1.572-5.868,7.283-13.022,10.996-22.498c3.258,2.629,3.395-6.941,8.057-3.929
			c-2.025-2.212,2.976-3.272,4.194-5.035c-2.319,5.001-7.813,9.38-6.141,12.238c-4.289,1.975-7.465,8.121-9.356,10.148
			c1.711,0.635,2.397-1.64,4.182-0.805c-0.63,0.911-0.187,1.37,0.965,1.333c-1.522,4.123-3.135,3.937-4.84,6.031
			c0.977,0.915,2.129,0.342,1.923,1.253c0.067,0.877-3.754,3.501-3.549,4.045c1.778,4.054-4.085,10.706-0.655,10.865
			c-1.922,4.396-2.694,8.571-5.826,11.746c0.376-0.813,1.425-1.679,0.653-2.402c-0.636,1.49-4.523,5.655-2.59,5.377
			c0.825-0.49,0.919-3.048,2.266-2.059c0.326,6.643-8.157,13.583-2.619,18.071c-3.498-1.209,1.132-4.879,1.615-2.479
			c-0.846-3.01,2.396-6.214,3.879-7.358c-0.992,0.506-0.125,2.985,0.643,1.831c0.524-2.081,0.493-4.118-0.628-6.062
			c2.375-1.787,4.729-3.149,5.164-6.522c-2.281,0.397-2.13,3.456-5.169,5.112c3.036-3.558,1.95-10.198,8.079-13.808
			c-0.76,3.086-4.832,4.078-4.197,6.444c2.225-3.242,0.698,1.228,1.287,2.251c2.773-2.568,3.434-8.549,3.887-14.417
			c1.771-0.406,4.785-7.1,7.105-9.496c-3.276,9.84-6.46,17.254-10.358,28.565c-0.649-0.423-1.291-0.841-1.932-1.259
			c0.455,2.101-2.149,1.848-1.297,3.396c1.312,0.423,1.489-2.383,2.908-1.643c-1.957,2.821-3.504,5.606-2.591,8.202
			c3.314-5.454,3.079-9.409,7.429-11.404c-1.505,4.097-1.304,2.947-1.954,7.203c2.618-3.417,3.519-3.674,2.919-7.283
			c0.947,0.617,0.671,3.421,1.928,1.256c-1.89-1.593-1.414-5.814,1.301-6.214c-0.223,1.113-1.015,2.279-0.336,3.322
			c0.596-0.672,0.962-1.979,1.942-1.573c-0.162,3.781-3.175,1.012-2.908,3.055c0.394-0.29,0.921-0.222,1.606,0.342
			c-1.522,3.768-4.358,5.836-5.812,8.927c2.903,0.867,0.352,2.167,2.574,3.085c2.027-2.543,0.952-7.025,3.873-5.945
			c-0.341-0.913-0.657-1.832-0.956-2.749c2.957-1.962,3.883-2.323,6.767-1.948c-1.086,2.401-0.51,2.755-2.256,2.062
			c1.11,1.321-1.128,2.908-0.015,4.231c2.279-0.054,1.235-4.661,4.518-5.534c-0.303,4.206-4.842,6.868-3.88,10.181
			c1.051-0.774,1.32-3.772,2.9-3.05c-3.423,2.789,0.903,7.437-2.912,8.693c0.285-0.643,1.027-1.329,0.324-1.9
			c-2.689,2.289-4.741,6.2-9.995,6.899c2.528,1.024,4.302-0.935,5.158-0.871c1.667,0.805-1.833,2.021,0.955,2.738
			c3.106-0.142,1.844-3.812,3.875-4.54c-0.58,3.022-1.03,4.833-3.877,5.95c0.254,0.922,2.277,1.705,0.963,2.748
			c-1.745,2.005,1.949-1.598,2.909-4.463c3.191,2.291,4.65-6.272,5.166-9.345c-2.944,0.999-1.867,7.037-4.845,8.85
			c-0.609-8.42,8.188-14.841,11.311-21.587c-1.965,0.504-2.739,5.492-6.125,5.189c4.52-3.659,1.754-5.631,3.875-8.772
			c2.353,0.911,0.503,2.153,1.606,3.164c0.961-0.63-0.544-3.288,1.613-2.479c-1.252,2.113,0.361,0.374,1.294,0.842
			c-1.142,4.785-4.667,8.452-7.112,12.315c0.919-1.01,1.061-1.964,0.004-2.825c0.675,3.146-3.036,3.325-1.297,4.808
			c1.435,0.727-0.083-1.96,2.252-0.647c-0.299,2.407-3.635,6.52-2.908,10.103c1.685,0.307,0.537,0.402,1.927-0.154
			c0.914,2.475-1.605,1.43-2.58,2.56c-1.488,7.912-0.062,0.664,4.189-0.803c0.625,2.256-0.977,1.767-0.654,3.809
			c2.217-1.321,1.065,0.561,1.604,1.757c3.014-4.118-2.373-11.661,5.497-12.659c-1.745,2.448-1.604,2.843,0.646,1.826
			c-1.5,1.845-0.646,3.502-2.587,5.377c3.648,2.498,3.894-3.983,4.512-4.122c-1.347-2.052,3.885-6.475,3.247-10.597
			c-1.054,0.777-1.332,3.771-2.91,3.051c1.48-3.8,4.161-5.917,3.892-10.183c-1.029,2.24-1.367-1.445-3.221-0.682
			c-0.776,1.787-3.644,3.737-1.625,5.295c0.588-0.674,0.968-1.978,1.937-1.561c0.962,3.317-2.699,4.145-1.947,7.206
			c-1.736-3.112-1.596,1.746-3.542-0.19c2.344-2.968,3.429-3.826,2.271-6.289c-2.748,3.667-4.291,7.234-4.21,10.677
			c0.591-0.67,0.958-1.986,1.938-1.562c-1.82,1.438-2.968,4.758-5.487,4.195c-0.488-8.241,12.087-15.016,7.124-19.374
			c1.837-0.114,1.102-0.578,2.895,1.181c1.676-1.509,0.496-5.311,1.3-6.219c2.111,2.08,3.473-3.193,5.485-4.193
			c-0.709-0.57-1.885-1.106-1.61-1.754c0.957-1.043,2.837,0.533,3.547-1.221c-0.029-1.717,1.874-9.128,4.521-6.938
			c-0.345-0.92-0.663-1.833-0.961-2.753c1.517,0.592,3.008-0.051,3.543,1.603c-0.676-5.274,8.84-9.542,6.786-11.819
			c2.015,1.025,2.408-2.576,4.188-2.218c-9.898,14.066-16.848,24.103-24.863,35.357c2.716-0.56,3.327-2.125,6.124-3.773
			c0.45-1.036-1.239-0.414-0.964-1.337c5.404-3.972,5.064-9.989,11.298-13.123c-2.327-1.184,0.663-6.003,1.614-2.476
			c1.64-1.697,1.328-3.236,1.3-4.805c3.416,2.419,2.105-5.905,5.801-4.695c-3.04,5.033-8.073,11.9-10.014,15.369
			c9.452-5.395,8.627-19.457,17.111-22.043c-4.955,9.423-12.04,21.101-20.335,28.41c0.103-0.472,0.61-0.989-0.004-1.41
			c-1.237,8.313-7.247,12.142-10.014,18.197c0.392-0.299,0.911-0.229,1.604,0.335c-2.148,2.161-3.691,8.054-3.882,11.599
			c1.613-0.823,0.672-3.721,1.938-2.978c0.329,1.542-0.736,3.19,0.636,4.651c3.625-10.638,12.14-20.888,19.056-29.251
			c-1.276,1.511,0.208,2.801-0.01,4.233c-0.652-5.9,2.326-5.713,3.238-9.192c-0.805,0.685,0.133,1.893-0.967,1.486
			c0.442-3.021,4.198-8.784,6.78-10.409c-2.899,7.458-7.267,14.127-7.765,20.359c3.994-4.396,5.208-11.063,8.079-13.806
			c1.492,0.306-1.456,3.094,0.634,1.833c-1.108-2.892,0.645-6.403,3.885-7.365c-0.447,2.229-5.638,4.84-1.625,6.716
			c-0.506-3.305,4.063-5.764,4.846-7.44c-0.895,5.682-5.469,7.233-4.849,11.672c2.539-4.128,4.527-8.535,9.351-10.148
			c-1.205,2.307-2.371,3.72-3.543,2.635c1.809,5.311-4.098,8.063-4.531,12.58c1.69-1.174,5.729-9.171,5.802-4.691
			c3.311-5.945,6.654-12.938,11.619-15.029c-8.859,11.065-18.204,28.145-31.64,42.95c1.073-0.243,2.916-4.171,1.62-3.892
			c-1.529,2.179-4.818,6.941-2.916,7.283c0.446-1.28,0.277-3.649,2.585-2.555c-0.959,3.165-4.943,3.732-3.229,6.37
			c1.272-1.086,1.741-4.474,3.543-4.049c-1.064,1.502-1.502,2.948-0.973,4.313c-0.172-5.473,11.477-18.232,14.533-22.31
			c-0.012,0.02,2.026-6.517,3.555-5.457c0.197,0.142-4.105,5.252-0.968,2.897c3.429-7.452,9.122-16.266,14.849-21.394
			c-0.995,2.423-4.491,5.054-3.878,7.358c2.186-2.674,3.62-5.102,6.463-8.501c4.081,2.849,5.757-5.167,9.668-6.409
			c-3.03,6.167-9.039,18.021-14.537,23.714c-0.021-1.73,2.723-6.055,4.842-7.432c0.881-3.14,1.387-5.162,1.626-5.3
			c-4.438,2.745-9.707,17.094-11.63,19.257c-0.576-0.212-1.279-0.812-1.607-0.341c0.664,1.771-0.042,2.449-1.297,3.398
			c4.723,0.917,5.261-9.22,10.644-9.312c-0.378,1.439-3.153,3.069-1.943,4.386c7.918-9.511,10.853-16.033,19.372-22.698
			c-1.21,2.757-4.933,5.721-4.53,8.354c2.381-1.21,5.526-8.779,9.037-11.062c-0.861,1.32-1.72,2.642-2.58,3.962
			c3.812,2.535,5.343-8.053,8.709-7.739c-1.524,3.255-5.573,6.711-5.487,9.837c1.569,0.117,7.153-3.439,2.9-3.05
			c15.089-21.058,24.86-39.827,38.418-53.364c-0.097,0.482-0.612,0.993,0.003,1.416c5.129-8.148,12.396-19.732,18.411-25.441
			c-1.32,2.774-6.5,8.334-5.181,9.338c1.738-3.579,6.02-7.366,6.146-10.823c1.237-5.502,7.407-16.772,13.892-24.146
			c-3.546,6.367-5.84,10.156-11.305,18.767c-0.371,0.506-0.515,1.457,0.324,0.914c1.703-1.729,2.591-5.818,4.831-6.03
			c-3.638,8.392-1.043,0.965,0.658-2.396c2.082-4.179,5.963-8.403,7.106-10.908c-2.792-3.468,4.479-3.299,3.234-6.374
			c-0.594,0.675-0.967,1.984-1.94,1.564c1.574-4.481,5.121-3.344,6.784-7.589c-1.209-1.681-2.183-1.061-2.257-2.173
			c4.969-8.072,10.82-17.327,16.472-25.289c-2.634,8.3-14.059,19.478-14.216,26.053c3.51,0.471,0.601-2.475,1.939-4.389
			c5.651-5.731,8.563-9.738,12.596-17.926c-0.593,0.674-0.965,1.98-1.937,1.562c7.211-5.265,6.235-14.757,15.5-22.383
			c-1.039,2.289-5.793,7.331-4.198,7.855c0.967-1.485,1.936-2.971,2.907-4.464c7.741-10.392,17.34-23.394,24.213-32.952
			c-1,0.501-0.131,2.985,0.638,1.831c-0.442-1.821,1.409-3.106-0.312-3.743c1.841,0.119,2.142-2.796,2.577,0.27
			c1.669-2.827,1.908-3.303,0.329-4.729c2.44-1.173,5.018-5.896,5.491-8.428c0.38-1.443,3.148-3.075,1.936-4.394
			c-10.537,15.874-20.994,30.966-30.671,44.289c6.268-13.095,17.587-26.046,20.99-35.054c0.754-1.159,1.507-2.314,2.259-3.469
			c1.646-1.49,0.065-2.52-0.64-0.415c-0.748,1.155-1.502,2.311-2.257,3.47c-8.782,12.913-14.947,24.867-23.576,34.78
			c-0.356-4.2,4.606-8.828,5.826-13.15c0.192-2.225-4.043,6.032-6.134,6.596c1.755-4.47,6.551-7.744,7.424-9.997
			c-0.475,0.523-0.803,1.482-1.61,1.072c5.568-9.4,15.069-27.457,25.51-37.761c-2.416-2.652-1.765,3.463-4.188,0.806
			c6.886-8.785,6.015-15.897,7.132-25.018c-6.922,6.083-8.998,19.739-16.78,20.142c0.894-3.991,4.74-8.214,6.136-12.245
			c-0.055-1.246-1.479-2.391-1.279-3.66c0.308-4.667,2.251-8.751,0.33-4.727c-0.609,1.291-0.562,3.628-3.229,4.961
			c0.167-2.841,2.183-5.824,1.95-8.62c-1.37,1.288-3.04,1.722-4.514,2.711c2.028-3.927,6.684-8.05,5.817-11.75
			c-1.971-1.847-2.953-0.871-4.82-2.435c-1.244,1.349,0.045,3.63-2.588,2.557c0.754-1.319,1.179-2.603,0.656-3.815
			c-3.154,1.898-6.179,10.039-10.329,13.047c1.451-1.213,0.517-2.235,1.292-3.396c3.677-6.889-1.151,1.366-3.226,2.138
			c2.706-6.637,9.561-9.111,8.725-16.209c-1.615,2.006-2.645,5.675-5.158,5.109c1.42-1.367,1.061-2.591,1.617-3.888
			c0.46-0.874,3.273-4.263,1.293-3.395c-2.335,2.375-4.173,10.475-4.845,4.615c-1.385,2.177-2.679,4.637-4.833,4.617
			c0.857-2.718,1.36-4.084,1.291-4.804c0.352,3.618-4.512-0.298,0.658-3.812c1.42-2.156-1.052-0.805-1.288,0.576
			c-3.339,3.068-0.916,6.803-4.847,7.437c-0.215-1.083,0.591-2.242-0.639-3.244c-1.217,0.523,0.842,2.914-1.292,1.985
			c0.829-0.854-0.23-1.556-0.316-2.33c1.413-3.087,5.36-6.38,5.167-9.345c-0.477,0.525-0.806,1.482-1.611,1.072
			c0.279-0.649,1.026-1.337,0.324-1.91c-0.724,3.207-3.357,6.695-6.454,7.096c2.51-3.801,4.597-7.575,5.495-11.25
			c-2.349,1.705-4.663,9.695-8.396,11.481c2.286-6.07,4.414-14.331,6.804-18.881c-0.339,0.492-1.539-0.105-1.289-0.838
			c1.606-0.882,2.467-2.916,2.263-4.878c-2.333,1.713-3.557,9.193-4.195,5.036c-3.403,2.536-5.078,3.799-7.096,8.093
			c-0.69-1.361-1.864-2.68-0.967-4.166c0.599,1.781,6.581-5.769,6.784-8.993c-3.455,3.286-7.965,10.983-13.23,13.272
			c6.763-7.771,9.146-16.686,10.998-25.322c-1.339,0.906-3.008,0.848-4.508,1.295c0.204-1.74,0.778-3.504-1.283-5.068
			c-3.828,1.826-6.347,7.386-10.002,9.726c1.413-1.363,1.429-2.623,0.656-3.812c-1.789-1.783-2.175,0.414-3.538-0.185
			c2.709-1.648,1.734-3.692,1.29-6.221c-1.52,0.383-3.303,0.02-4.508,1.3c0.58,8.076-12.082,13.155-16.791,20.139
			c5.34-11.061,12.799-20.669,14.558-29.365c-3.69-1.408-9.722,6.529-10.327,8.812c0.395-0.292,0.656-0.969,1.287-0.573
			c-0.956,4.667-2.424,9.56-6.136,12.243c-0.797-1.038,1.724-2.331-0.641-3.24c-1.385,1.249-1.957,4.809-3.873,4.543
			c0.845-1.981,0.818-3.552,2.909-4.466c-1.982-1.724,1.356-3.869,0.973-5.719c1.168-0.774,1.399-3.586,0.008-1.415
			c-2.287,3.41-4.573,6.809-8.386,5.844c-1.223,0.518,0.844,2.911-1.292,1.984c-0.851-0.564-0.024-1.257-0.645-1.834
			c-5.509,6.355-14.519,18.695-20.974,22.356c0.116-0.956,2.419-2.075,0.973-2.903c-2.665,4.073,0.187,7.583-4.529,9.767
			c1.237-1.087,2.146-4.498,0.651-3.812c0.071,3.668-2.568,5.608-3.557,6.867c-7.435,9.409-14.129,22.017-22.925,32.382
			c3.414-6.459,9.56-12.9,10.666-17.775c-0.596,0.672-0.97,1.979-1.943,1.562c4.904-4.284,3.382-6.938,8.081-13.806
			c1.583,0.815-0.222,1.897,0.962,2.746c2.373-2.861-1.203-3.112-1.284-5.074c-4.087,7.712-7.127,12.306-9.046,18.112
			c-1.043-0.399-1.472-0.104-1.932-1.26c-3.365,11.064-15.753,22.239-20.024,29.338c0.397-0.293,0.659-0.967,1.29-0.576
			c-7.729,10.375-14.791,19.162-17.446,28.184c-0.643-0.418-1.281-0.835-1.929-1.257c0.693,1.772-1.94,5.214-4.198,6.445
			C114.584,130.311,119.807,126.59,118.103,124.512z M106.171,301.774c3.105-0.125,3.475-8.07,7.1-6.677
			C109.358,297.565,110.992,302.75,106.171,301.774z M57.8,338.059c-1.554-1.136-2.516-0.557-3.543-0.185
			c-0.608-4.271,4.076-4.277,3.877-7.372C60.437,331.866,57.004,334.901,57.8,338.059z M33.049,311.341
			c-1.992,0.955-1.636-0.718-1.618,2.48c-1.565-2.609-0.302,0.298-1.932,1.564c0.976,0.413,1.34-0.891,1.932-1.564
			c2.735,1.037,0.17,2.491,1.282,3.659c-1.118,0.121-2.417-0.293-2.894,1.641c-0.61-0.263-0.491-0.588-0.328-0.919
			c-0.8-0.408-1.131,0.555-1.611,1.07c1.089-2.809,1.717-6.167,1.954-10.025C31.411,307.841,31.98,310.174,33.049,311.341z
			 M130.992,120.199c-1.022-1.643,2.008-3.611,2.589-5.38C134.597,116.458,131.571,118.431,130.992,120.199z M63.478,230.877
			c1.331,3.751-3.71,5.273-5.824,10.332C56.521,239.882,61.965,233.98,63.478,230.877z M6.92,333.165
			c1.416-2.38,3.819,3.701,0.642,3.243C5.749,335.445,9.973,334.021,6.92,333.165z M35.976,295.592
			c-0.057,1.58,0.868,3.068-0.328,4.729c-0.615-0.423-0.104-0.935,0.005-1.409c-3.29-1.051-5.098,6.676-4.193,2.209
			C31.891,298.989,32.982,296.908,35.976,295.592z M37.917,291.21c-1.488-1.686,1.545-1.995,1.937-2.975
			C41.17,290.151,39.609,291.12,37.917,291.21z M26.276,318.931c2.033,2.194-0.376,4.73-1.954,7.209
			C23.196,323.884,26.263,321.282,26.276,318.931z M24.325,327.553c-0.923-0.91-1.15,1.88-0.649,2.401
			c-2.699,0.635-1.965-2.944-0.959-4.156c1.48,0.664,1.479,1.446,2.251,2.171C24.48,328.455,24.143,327.827,24.325,327.553z
			 M53.638,323.344c2.002-0.583-1.425,3.21-1.937,4.382c1.696,0.584,2.062-2.615,3.229-3.54c1.743,0.194-2.699,4.893-3.558,6.86
			C49.21,328.714,52.063,325.971,53.638,323.344z M73.31,310.029c-0.51-1.552,2.253-5.79,3.877-5.955
			C75.086,306.392,75.032,309.047,73.31,310.029z M75.877,314.519c-0.519-2.029,2.612-5.718,4.837-4.609
			C78.92,310.915,77.424,312.783,75.877,314.519z M61.984,338.665c-0.084,2.36-1.857,4.852-2.915,7.282
			C57.553,343.856,61.018,339.45,61.984,338.665z M72.312,325.618c0.539-0.827,1.075-1.651,1.613-2.479
			c2.497,0.902-0.002,2.196-0.324,3.32C73.168,326.177,72.745,325.9,72.312,325.618z M80.389,314.639
			c0.913-5.127,4.933-8.002,2.261-3.469C81.558,313.018,80.118,316.14,80.389,314.639z M249.308,56.733
			c1.501,1.603,0.833,3.382,0.314,5.151C247.833,60.294,249.669,58.428,249.308,56.733z M76.171,329.543
			c-1.417,0.562-0.865,2.188-3.226,2.136C72.241,335.26,71.797,325.646,76.171,329.543z M73.598,327.867
			c1.448-1.232,1.073-0.657,1.614-2.478C78.851,326.533,75.489,330.073,73.598,327.867z M71.339,331.335
			C72.689,335.146,65.712,337.487,71.339,331.335L71.339,331.335z M76.178,325.31c0.374-3.098,5.236-10.221,4.522-6.939
			C80.442,319.588,79.446,323.393,76.178,325.31z M113.901,303.982c-5.655,4.158-9.565,16.926-13.877,17.088
			c0.939,2.837-1.718,3.369-1.948,5.797c-3.432,6.082-4.787,5.164,0.006-1.414c-6.042,4.865-9.365,12.93-14.206,18.995
			c11.262-24.652,29.021-38.138,36.494-57.443c3.625,2.818,3.824-6.747,8.391-5.833c0.114,2.212-3.481,3.469-3.877,5.953
			c-0.522,3.298,1.861-0.359-0.646,0.99c-3.327,1.794-4.874,9.868-6.464,12.741c-3.476,6.28-6.77,10.557-9.688,14.87
			C107.612,310.29,112.927,308.108,113.901,303.982z M83.87,347.271c0.614,2.302-2.886,4.93-3.883,7.364
			C79.075,353.675,81.77,348.909,83.87,347.271z M119.683,314.812c0.509-1.371,1.873-0.322,2.256-2.064
			c2.095,2.183-2.038,4.863-2.916,7.28C115.818,317.875,122.734,315.963,119.683,314.812z M65.121,208.651
			c-1.598,1.56-2.383,5.479-4.511,5.532c-2.19,5.501-6.135,11.686-0.335,3.309C62.737,215.994,67.868,207.178,65.121,208.651z
			 M8.244,315.668c-0.555-3.93,6.411-10.375,5.178-13.58c-1.734,3.049-3.657,6.53-5.809,6.105
			C8.481,311.207,5.662,313.153,8.244,315.668z M2.751,322.677c1.832-4.282,4.764-5.648,3.561-8.271
			C4.196,316.666,1.375,325.267,2.751,322.677z M26.948,299.601c-2.045-1.806,2.364-2.69,0.661-5.22
			c-0.86,1.318-1.722,2.64-2.584,3.966C26.259,298.873,26.195,300.153,26.948,299.601z M11.411,343.151
			c-1.09,0.884-0.609-1.252-2.249-0.761c0.425,1.849-0.83,3.826,1.921,5.492c1.009-1.494-0.105-2.813,0.008-4.234
			C11.443,343.878,12.08,343.724,11.411,343.151z M41.441,302.682c-4.709,2.348-4.607,4.312-3.235,7.776
			c0.365-1.821,0.413-1.894,1.936-2.972C36.787,304.558,42.348,304.566,41.441,302.682z M239.398,17.086
			c-1.409-1.148-0.439-2.472-1.276-3.66C234.538,16.178,236.932,16.867,239.398,17.086z M26.517,359.351
			c-0.653-0.58-0.643-1.202-0.635-1.829c0.643,0.418,1.025,0.1,1.605,0.343c-0.567,2.082-0.023,4.075,0.631,6.059
			c1.544-2.488,1.402-7.308-0.303-7.97c1.117,1.496-2.599,0.956-3.546,1.225c1.013-0.803-1.826-2.688-0.322-0.917
			C23.665,357.124,25.267,360.157,26.517,359.351z M33.937,356.412c-0.558,2.237,0.434,4.346,0.305,6.554
			c0.59-0.673,0.96-1.979,1.936-1.564c-3.391,8.115-1.857,0.425,0.647,0.422c0.718-0.002,2.066,6.131,1.279,2.247
			c0.344-1.123-1.249-2.096,0.323-3.319c0.541,1.66,2.082,1.171,3.228,0.691c-3.482-2.068,2.98-3.525,1.294-4.809
			c-1.256,1.72-5.202,2.384-3.548,4.043c-1.777-1.767-2.497-0.52-3.865-1.105c1.45-0.072,2.311-2.179,0.33-3.318
			C35.366,356.723,34.65,356.56,33.937,356.412z M42.959,350.991c0.93-0.654,1.67-1.846,2.898-1.645
			c-0.415,2.231-4.544,1.06-3.219,3.55c0.493-0.47,1.212-0.304,1.93-0.152c-0.43,0.662-0.861,1.321-1.292,1.982
			c-1.203-2.515-3.601,0.028-1.94,1.56c1.082-1.071,3.687-0.84,4.192,0.612c0.964-1.785-1.155-2.873,1.613-2.477
			c-1.838-0.902-0.308-2.319,0.653-2.404c-0.183,0.271,0.146,0.898,0.641,0.418c-0.68-0.726-0.901-1.494-0.321-2.328
			c-1.077-0.7-2.14-1.396-3.216-2.095c-0.482,0.524-0.804,1.483-1.613,1.069c0.175-0.27-0.152-0.899-0.644-0.418
			C43.698,349.364,42.104,350.274,42.959,350.991z M53.267,349.23c0.665,0.785,1.859,3.857,2.575,3.088
			c-0.988-0.986,0.625-0.342,1.286-0.57c-5.134-1.79-2.076-4.227-2.244-6.406c-0.914,1.99-5.496,3.58-5.483,7.016
			C51.873,351.543,50.575,348.801,53.267,349.23z M59.032,367.108c-1.747-1.418,1.382-3.243,0.332-4.725
			C56.935,362.807,57.318,367.27,59.032,367.108z M87.057,363.472c-0.61,0.833-0.862,1.64-0.644,2.41
			c-4.572,7.02,4.591-1.997,0.008-4.237c-3.084-0.014-1.262,5.149-4.192,5.035c0.914-4.77,4.628-9.774,2.919-14.342
			c-0.746,5.867-6.09,14.592-3.9,18.649C81.884,369.891,84.39,363.955,87.057,363.472z M87.405,350.283
			c0.891-2.27,4.273-4.729,3.557-6.867c-1.509,2.313-3.015,4.627-4.523,6.941c1.127,0.908-0.899,0.58-0.001,1.412
			C87.147,351.222,87.754,351.438,87.405,350.283z M92.23,354.129c-0.294,2.592-4.136,2.215-3.223,3.547
			c3.802-1.088,6.688-8.516,6.781-10.412c-3.1,3.29-5.478,6.272-5.81,7.518C90.673,354.397,91.398,354.104,92.23,354.129z
			 M94.781,368.505c-1.254-0.362-4.647,4.708-1.62,3.888C92.473,370.938,95.967,369.626,94.781,368.505z M167.36,309.141
			c-3.479,1.627-4.109,7.955-4.534,8.346C164.417,315.707,169.28,311.941,167.36,309.141z M276.182,150.511
			c0.118-3.952,4.89-3.5,3.239-7.778c-1.894,4.244-6.463,6.451-5.813,8.927c0.593-0.672,0.959-1.981,1.938-1.564
			C275.364,150.374,275.7,150.999,276.182,150.511z M58.997,211.013c-1.058,2.432-2.269,3.469-2.256,4.888
			c2.889-0.772,3.663-4.17,2.908-7.29c-0.999-0.761-3.041,2.375-1.938,2.974C58.106,211.298,58.363,210.623,58.997,211.013z"/>
	</defs>
	<use xlink:href="#SVGID_1_"  overflow="visible" fill="#F6FC79"/>
	<clipPath id="SVGID_2_">
		<use xlink:href="#SVGID_1_"  overflow="visible"/>
	</clipPath>
</g>
</svg>
