<?xml version="1.0" encoding="utf-8"?>
<!-- Generator: Adobe Illustrator 16.0.0, SVG Export Plug-In . SVG Version: 6.00 Build 0)  -->
<!DOCTYPE svg PUBLIC "-//W3C//DTD SVG 1.1//EN" "http://www.w3.org/Graphics/SVG/1.1/DTD/svg11.dtd">
<svg version="1.1" id="Layer_1" xmlns="http://www.w3.org/2000/svg" xmlns:xlink="http://www.w3.org/1999/xlink" x="0px" y="0px"
	 width="300px" height="400px" viewBox="10 10 300 400" enable-background="new 10 10 300 400" xml:space="preserve">
<path fill="#ABF4E6" d="M184.882,36.864c0.322,2.48-3.311,2.852-4.157,5.769C179.418,40.714,183.647,38.557,184.882,36.864z
	 M154.689,85.472c-0.17,1.065-6.582,8.646-4.306,9.233c1.13-3.067,4.283-6.63,5.883-11.83
	C155.743,83.74,155.212,84.611,154.689,85.472z M141.339,111.725c1.383-2.841,3.99-6.039,2.777-7.789
	c-9.431,20.819-24.488,45.787-31.418,65.634C121.878,151.77,131.865,131.191,141.339,111.725z M138.354,124.14
	c1.479-0.72,2.508-3.659,3.946-6.497c0.618-1.208,3.685-5.128,1.889-4.188c-2.694,4.586-4.134,7.281-7.208,8.658
	C137.542,122.767,137.789,123.483,138.354,124.14z M79.919,221.354c0.525-2.011,2.471-4.298,2.469-6.205
	C81.229,216.342,78.564,218.925,79.919,221.354z M122.95,152.694c0.388-0.463,0.661-1.276,1.262-1.007
	c-0.194,0.548,0.123,0.996,0.425,1.441c0.651-1.663,3.042-5.657,2.206-5.769c-1.427,2.328-0.702,1.268-1.953,0.001
	C125.207,148.951,122.403,151.148,122.95,152.694z M180.805,57.496c-1.943,1.419,1.785-3.301-0.158-1.873
	c-1.083,1.605-1.892,3.167-1.416,4.468C179.326,58.448,181.856,58.687,180.805,57.496z M201.059,24.176
	c-0.5,1.496-2.88,3.361-2.156,4.613C199.398,27.295,201.776,25.438,201.059,24.176z M204.009,23.597
	c0.954-1.596,4.037-5.597,1.202-5.191C204.641,19.252,203.549,21.872,204.009,23.597z M305.593,67.561
	c-1.368-0.626-3.159-4.389-4.285-2.602C304.119,65.592,303.419,69.092,305.593,67.561z M253.192,171.998
	c0.585-1.635,3.053-3.644,2.415-5.043C254.236,168.8,252.762,169.847,253.192,171.998z M210.082,253.647
	c1.39-3.064,6.341-7.273,5.521-9.09C212.515,248.033,209.623,249.881,210.082,253.647z M203.983,264.759
	c0.586-1.643,3.055-3.648,2.421-5.056C205.002,260.252,202.972,263.478,203.983,264.759z M199.725,272.828
	c-1.56-1.251-3.448,3.225-3.104,4.044C198.067,276.232,197.685,273.434,199.725,272.828z M193.775,23.309
	c-1.475-1.4,2.578-1.493,1.101-2.892c-0.822,1.272-3.975,1.421-3.537,2.594C192.534,21.401,192.619,24.228,193.775,23.309z
	 M29.114,356.394c0.322,1.934,3.517,2.719,2.441,5.631c-0.722-0.481-1.096,1.062-0.258,0.43c3.762,2.088,0.627,7.343-0.937,10.102
	c1.93-1.402,3.008-5.717,5.796-4.179c-0.718,1.032-1.364,2.045-0.361,2.745c1.558-2.23,3.158-4.314,5.959-2.31
	c-0.785,0.425-2.234,3.803-1.629,3.757c1.535-0.119,1.26-3.092,2.58-3.182c4.445-0.287,10.965,8.46,7.884,9.537
	c0.983,0.237,1.208-2.074,2.263-1.584c0.319,1.258,1.641,2.46,2.851,1.733c-0.784-0.483-1.581-0.963-2.374-1.444
	c-0.28-1.24,0.558-4.667,2.419-5.049c2.053,2.225,3.753,2.332,3.705,4.623c-1.128,1.522-4.145,3.546-3.899,5.333
	c1.418-0.939,2.421-3.281,4.059-3.462c-2.874,5.303-0.675,0.811,1.688,0.433c0.112,0.871,0.748,1.638,1.119,2.458
	c1.426,0.018,0.04-1.421,1.26-1.013c0.054,1.927,2.386,1.039,2.068,3.039c-0.34,1.205-2.51,2.777-1.629,3.75
	c1.682-0.921,2.521-4.695,5.224-2.168c-0.316,0.702-1.141,1.498-0.577,2.027c1.557-2.607,0.295,0.979,2.211-0.433
	c1.177,0.532-0.238,1.57,0.64,2.163c1.312-2.164,2.076,0.34,2.378,1.446c-0.264,1.066-2.32,2.485-1.364,3.314
	c1.186-0.389,1.762-2.854,3.05-2.878c-0.386,0.75-2.634,3.76-1.104,2.882c1.063-2.137,2.366-3.452,4.272-2.739
	c-2.092,1.949-1.139,5.288,0.749,5.197c-0.16-0.729-1.672-1.197-0.632-2.164c0.627,0.378,0.89-0.494,1.465-0.29
	c1.17,2.866,3.853,1.438,6.291,1.447c0.164,0.99-0.482,2.127,0.109,3.034c1.644-1.86,1.675-5.393,2.948-5.911
	c2.824,2.518,4.46,0.998,6.754,1.733c1.463,1.497,1.535,3.265,1.489,5.055c2.808-2.229,2.025,4.268,2.28,3.755
	c0.906-2.085,3.671-4.901,3.743-1.875c0.642-0.468,0.803-2.576,1.791-1.878c-0.116,0.788-1.918,1.899-0.841,2.457
	c0.313-0.271,0.533-0.845,1.003-0.574c-0.146,0.233,0.083,0.721,0.47,0.284c-0.615-2.364,3.14-8.542,5.528-9.085
	c0.797,1.262-2.287,5.252-1.203,5.193c1.202-1.883,3.913-7.523,4.319-3.889c2.871-7.276,7.499-13.886,13.738-18.315
	c-0.091,1.552-2.036,5.456-0.725,5.475c-1.178-3.263,3.872-1.073,3.05-2.88c-0.311,0.27-0.701,0.26-1.212-0.146
	c1.107-0.643-0.499-2.115,0.155-3.463c4.815-10.072,22.482-23.914,27.106-33.893c-0.312,0.268-0.533,0.842-1.003,0.575
	c10.104-12.79,20.33-33.597,31.195-49.185c-0.725,1.031-0.841,1.948-0.362,2.742c1.229-2.021,2.455-4.032,3.681-6.059
	c-4.007-0.314,2.584-1.867-1.166-1.299c1.506-2.881,5.528-4.191,5.476-7.934c-0.585,1.118-1.343,1.649-2.268,1.587
	c8.92-12.996,12.312-29.98,23.934-39.38c-0.099,0.396-0.504,0.861-0.052,1.156c7.584-14.215,10.217-20.729,17.875-34.766
	c0.659,0.381,0.912,0.836,1.159,1.302c0.626-1.142,0.985-2.229,0.626-3.179c-1.763-0.435-1.48,2.031-3.53,2.596
	c2.869-3.357,1.295-6.181,3.997-7.646c0.302,1.595-1.734,1.776-0.884,3.611c2.383-3.268,2.565-6.103,5.039-9.377
	c-0.101-1.381-1.495-0.166-1.164-1.302c2.062,1.022,1.16-5.502,2.535-2.018c1.485-2.274,4.65-5.469,4.255-8.079
	c-1.32,0.383-1.908,3.231-3.317,3.312c0.134-3.387,3.514-7.218,6.052-9.95c-0.924,2.269-2.137,2.609-1.158,4.041
	c2.358-1.737,0.114-3.1,2.632-4.332c-0.718-0.665-1.613-0.097-1.43-0.866c2.408-4.28,3.052-6.361,6.1-11.107
	c0.48,0.291,0.352,0.698,0.69,1.012c0.182-0.926,2.121-2.189,1.099-2.884c-0.379,0.463-0.661,1.273-1.26,1.009
	c0.301-1.101,1.014-4.233,2.623-4.329c0.431,1.597-1.77,1.531-0.621,3.176c1.553-2.874,4.198-4.039,2.73-6.641
	c1.3-0.249,3.104-1.315,2.909,0.584c0.468-2.14,3.157-6.704,2.516-7.359c-3.829,6.93-3.919,2.327,0.096-2.311
	c0.591,0.398,0.325,0.958,1.163,1.3c7.008-12.14,16.186-22.807,21.251-33.895c-0.312,0.271-0.531,0.844-1.001,0.58
	c0.923-1.693,1.648-2.759,1.743-0.72c1.88-3.175,5.787-6.041,3.568-9.093c-1.166,2.239-2.722,3.131-4.53,3.172
	c2.755-7.875,2.117-5.514,6.831-11.251c-2.91-0.65-1.663-6.671,0.202-4.619c2.763-6.002-0.297-10.881,1.713-16.735
	c0.871,0.595-0.542,1.627,0.637,2.161c1.445-4.371,4.83-2.149,6.369-6.201c-1.511-1.167-2.212,0.427-3.428,0.288
	c0.423-0.849,0.565-1.632,0.104-2.305c-0.93,1.045-2.399-0.669-2.644-1.013c1.651-1.504,0.9-0.855-0.693-1.015
	c0.7-3.066,3.554-3.311,4.211-6.924c-2.065-1.34-0.517,1.363-1.997,1.157c-0.542-1.959-1.863-0.695-3.121-1.307
	c-0.341-1.591,0.78-4.665-1.583-2.734c0.004-2.212,3.763-1.188,1.575-2.6c-0.758,1.417-2.146,0.678-2.793,2.449
	c-0.445-1.924-4.879-1.354-4.382-0.29c0.275-0.432,1.167-0.04,0.949,0.575c-0.723,1.066-1.439,2.173-2.74,1.298
	c-2.321-3.129-1.075-5.715,0.881-8.948c-0.997-0.958-1.951-1.537-1.803-3.465c0.455-0.429,2.91-0.469,1.79-1.874
	c-0.726,1.067-1.708,1.259-2.953,0.571c-0.331-0.988,0.808-2.861,1.841-3.025c-1.5,0.164-2.688-0.705-3.382-0.869
	c-4.023,3.807-10.289-1.653-15.568-1.169c-1.612-0.829-0.153-2.257-0.591-3.319c-1.398-0.325-2.134,1.591-3.482,1.446
	c-1.416-1.365,2.15-3.262,0.634-3.18c-1.294,0.879-1.918,1.917-2.108,3.46c-1.031-1.075-4.334,1.165-4.332-1.447
	c-1.286,1.171-1.675,1.374-3.954,1.15c1.278-1.395-0.019-2.281,0.891-3.609c-1.688,0.468-2.178,0.241-5.067-1.3
	c0.725-0.905,0.874-1.694,0.099-2.305c-2.28,0.657-5.091-0.497-7.551-0.445c1.779,0.089,1.055-3.424-0.375-2.602
	c0.779,2.34-1.406-0.766-3.116-1.295c-2.352,1.943-5.34,1.162-6.806-0.586c1.855,0.946-1.496,1.836-1.317,2.163
	c-0.767-2.695-3.703,0.788-4.334-1.444c1.549-1.396,4.072,0.577,5.651-0.719c-0.74-1.505-2.612-0.929-2.805-2.889
	c-1.231,2.018-3.295,1.184-5.167,1.006c0.953-1.476,3.18-2.579,2.951-0.573c0.431-0.491,2.671-1.278,1.789-1.874
	c-2.287,0.696,0.35-1.273-0.427-1.44c-1.806,2.286-6.435,1.974-8.072,0.419c1.439-4.039,5.631-2.883,9.171-3.303
	c-5.506-3.249-9.273-0.575-13.452,0.703c-1.19-0.994-2.599-1.555-1.59-2.742c-1.595,1.365-3.508,3.846-5.417,6.78
	c0.307-0.271,0.531-0.844,0.994-0.578c-0.359,0.712-0.972,1.466,0.163,1.878c1.005-2.38,3.669-3.264,1.895-4.18
	c1.942,0.582,0.755-2.163,2.48-0.869c-0.67,2.17-5.291,8.248-6.586,5.479c-0.061,1.919-1.286,2.179-2.793,2.45
	c0.457-1.641,2.867-3.38,2.364-3.893c-2.37,0.984-6.54,2.487-4.891,5.918c0.383-0.469,0.666-1.281,1.265-1.014
	c-0.768,3.928-4.051,10.583-8.939,14.716c2.387-3.902,4.46-7.738,5.617-11.398c-0.382,0.467-0.661,1.278-1.26,1.012
	c1.182-2.689,2.489-3.488,1.94-5.347c-6.097,5.931-5.311,14.641-11.245,22.799c-1.222-0.658-2.358-1.32-1.857-2.314
	c0.279-0.613,2.576-0.635,1.529-1.44c-0.394,0.426-0.938,0.353-1.475,0.285c2.853-6.431,7.588-10.375,6.726-14.278
	c-1.759,3.76-4.322,4.79-6.853,5.912c1.878-2.657,1.123-4.8,0.311-6.928c-0.337,0.836-2.657,1.347-1.582,2.596
	c0.368-0.495,0.77-0.939,1.477-0.292c-0.222,3.186-1.822,4.372-1.047,7.077c0.729-0.697-0.328-2.754,1.529-1.446
	c-1.906,2.282-2.804,5.967-4.206,6.924c2.668,1.531,1.531-3.835,3.318-3.316c-0.368,5.033-5.183,10.258-6.991,14.717
	c0.308-0.275,0.535-0.845,1.003-0.576c-9.423,15.776-22.886,31.505-30.455,49.036c-0.622,1.443-0.652,3.145-1.418,4.476
	c-11.29,19.689-21.25,40.225-34.336,59.719c-1.379,2.059-4.212,4.342-2.781,7.791c1.712-2.127,2.876-6.141,4.944-7.067
	c-5.166,7.879-8.189,16.945-14.143,22.21c3.082-5.047,5.862-10.042,7.717-14.855c-3.556,4.773-8.377,13.812-13.31,19.758
	c3.157-8.626,11.001-19.763,12.408-26.832c-1.844,3.298-5.736,6.931-5.631,11.401c-0.318-0.193-0.632-0.384-0.949-0.581
	c-5.439,16.689-23.35,41.493-31.649,59.576c0.459-0.656,0.854-1.541,1.749-0.719c-2.3,3.117-8.301,13.498-10.572,18.462
	c0.505-1.104-1.021,5.196-2.632,4.33c0.317,0.168,2.872-5.77,0.839-2.456c-9.228,17.269-23.058,31.416-30.838,46.442
	c0.641-0.469,0.809-2.573,1.79-1.876c-1.617,7.478-7.507,17.701-13.028,24.674c2.117,6.472-7.568,11.091-5.881,17.163
	c2.089-0.858,3.803-2.993,6.226-2.735C22.158,349.729,21.605,355.177,29.114,356.394z M222,19.717
	c-3.201,1.932-4.429,3.235-8.011,4.617C215.122,22.871,218.832,18.709,222,19.717z M152.413,109.571
	c0.027,2.88-1.875,3.905-3.467,6.776C148.655,115.094,150.947,110.832,152.413,109.571z M177.249,71.931
	c-0.329-2.208,1.183-4.435,2.896-4.765c-0.853-3.977,1.174-5.403,3.881-10.681c2.1,2.679-2.338,4.83-1.992,6.493
	c2.154-1.868,5.58-7.535,2.005-1.146c-0.634,1.01,0.041,1.77-1.106,2.879C180.786,63.146,180.875,69.045,177.249,71.931z
	 M145.267,122.407c1.398,2.037-2.695,3.474-2.729,6.641C141.042,127.301,144.464,124.602,145.267,122.407z M83.631,225.978
	c-0.447,2.393-1.829,5.175-3.473,6.78C80.531,230.588,81.601,227.324,83.631,225.978z M89.459,215.3
	c0.635,2.134-0.771,2.604-1.938,5.337C86.717,220.645,88.475,216.913,89.459,215.3z M48.283,286.271
	c-1.085,0.699-4.597,12.342-7.147,12.839C43.037,298.742,45.456,287.735,48.283,286.271z M220.584,24.194
	c-0.981-1.729,2.043-0.879,2.738-1.298c1.096,1.688-1.919,0.384-2.051,2.309c-0.454-0.292-0.049-0.755,0.049-1.155
	C220.97,23.725,220.776,23.944,220.584,24.194z M278.007,50.794c-0.616-0.493,1.418-3.013,2.527-2.014
	c-0.435,0.716-0.877,1.439-1.314,2.155C278.711,50.535,278.318,50.52,278.007,50.794z M281.802,47.764
	c1.173,0.917,0.906,2.11,0.589,3.325C281.101,50.191,280.823,49.104,281.802,47.764z M287.244,51.67
	c-0.405,0.399-1.129-0.287-1.473,0.291c-1.49-0.477-0.44-1.442-1.376-2.021C285.926,50.868,286.444,48.927,287.244,51.67z
	 M225.573,217.436c1.339,2.118-2.24,4.184-2.198,5.776C222.57,220.957,223.27,219.353,225.573,217.436z M231.154,207.195
	c0.429-1.322,0.818-3.118,2.89-4.759C233.735,203.746,232.816,206.098,231.154,207.195z M221.799,225.806
	c1.072,0.555-0.721,1.665-0.841,2.448c4.325-2.928,5.811-11.429,10.253-16.873c1.661-2.08,0.148,1.287-0.576,2.021
	c-0.7,1.152-1.399,2.309-2.101,3.457c-3.306,8.174-7.605,14.207-12.73,23.078C216.248,235.505,219.015,231.758,221.799,225.806z
	 M73.074,227.27c-0.716-1.392,2.695-3.583,0.937-4.76c-1.772,4.983-3.693,7.295-4.618,10.815c2.374-0.769,2.206-4.218,4.315-3.896
	c-0.116,0.791-1.912,1.899-0.835,2.456c2.173-0.395,1.822-4.201,3.366-4.474C76.062,224.862,75.814,226.605,73.074,227.27z
	 M119.012,164.525c-0.749-2.519,5.259-6.365,3.312-8.652C122.233,158.993,116.166,163.093,119.012,164.525z M53.723,262.319
	c-11.831,20.591-29.048,43.377-34.125,60.44c1.525-4.921,8.706-8.154,9.894-14.136c-1.596,0.77-2.44,4.103-4.531,3.171
	c3.719-5.118,4.411-10.521,8.466-14.999c0.737,1.521-4.085,6.117-2.467,6.203c5.678-9.357,14.247-19.487,15.779-25.966
	c10.242-13.084,17.045-26.973,24.556-42.553c-2.708,1.258-2.096,5.667-4.9,5.914c0.374-2.106,3.162-4.686,1.994-6.493
	c-4.74,9.756-12.409,24.251-14.977,30.006C53.645,263.355,54.233,262.729,53.723,262.319z M65.289,243.279
	c-0.7,2.277-1.803,6.312-3.99,7.649C60.893,248.52,63.406,245.071,65.289,243.279z"/>
</svg>
